<?xml version="1.0" encoding="UTF-8"?>
<svg xmlns="http://www.w3.org/2000/svg" xmlns:xlink="http://www.w3.org/1999/xlink" width="36pt" height="36pt" viewBox="0 0 36 36" version="1.1">
<g id="surface5998">
<path style=" stroke:none;fill-rule:nonzero;fill:rgb(29.803923%,68.627453%,31.37255%);fill-opacity:1;" d="M 33.75 12.148438 L 30 14.210938 L 26.25 17.773438 L 26.25 30 L 31.5 30 C 32.742188 30 33.75 28.992188 33.75 27.75 Z M 33.75 12.148438 "/>
<path style=" stroke:none;fill-rule:nonzero;fill:rgb(11.764706%,53.333336%,89.803922%);fill-opacity:1;" d="M 2.25 12.148438 L 4.960938 13.433594 L 9.75 17.773438 L 9.75 30 L 4.5 30 C 3.257812 30 2.25 28.992188 2.25 27.75 Z M 2.25 12.148438 "/>
<path style=" stroke:none;fill-rule:nonzero;fill:rgb(89.803922%,22.352941%,20.784314%);fill-opacity:1;" d="M 26.25 8.398438 L 18 14.585938 L 9.75 8.398438 L 9 12.75 L 9.75 17.773438 L 18 23.960938 L 26.25 17.773438 L 27 12.75 Z M 26.25 8.398438 "/>
<path style=" stroke:none;fill-rule:nonzero;fill:rgb(77.64706%,15.686275%,15.686275%);fill-opacity:1;" d="M 2.25 9.222656 L 2.25 12.148438 L 9.75 17.773438 L 9.75 8.398438 L 7.40625 6.644531 C 6.847656 6.226562 6.171875 6 5.472656 6 C 3.691406 6 2.25 7.441406 2.25 9.222656 Z M 2.25 9.222656 "/>
<path style=" stroke:none;fill-rule:nonzero;fill:rgb(98.431373%,75.294119%,17.647059%);fill-opacity:1;" d="M 33.75 9.222656 L 33.75 12.148438 L 26.25 17.773438 L 26.25 8.398438 L 28.59375 6.644531 C 29.152344 6.226562 29.828125 6 30.527344 6 C 32.308594 6 33.75 7.441406 33.75 9.222656 Z M 33.75 9.222656 "/>
</g>
</svg>
