<?xml version="1.0" encoding="UTF-8"?>
<svg xmlns="http://www.w3.org/2000/svg" xmlns:xlink="http://www.w3.org/1999/xlink" width="36pt" height="36pt" viewBox="0 0 36 36" version="1.1">
<g id="surface5398">
<path style=" stroke:none;fill-rule:nonzero;fill:rgb(0.784314%,53.333336%,81.960785%);fill-opacity:1;" d="M 31.5 27.75 C 31.5 29.820312 29.820312 31.5 27.75 31.5 L 8.25 31.5 C 6.179688 31.5 4.5 29.820312 4.5 27.75 L 4.5 8.25 C 4.5 6.179688 6.179688 4.5 8.25 4.5 L 27.75 4.5 C 29.820312 4.5 31.5 6.179688 31.5 8.25 Z M 31.5 27.75 "/>
<path style=" stroke:none;fill-rule:nonzero;fill:rgb(100%,100%,100%);fill-opacity:1;" d="M 9 14.25 L 12.75 14.25 L 12.75 27 L 9 27 Z M 10.863281 12.75 L 10.84375 12.75 C 9.722656 12.75 9 11.914062 9 10.875 C 9 9.808594 9.746094 9 10.886719 9 C 12.027344 9 12.730469 9.808594 12.75 10.875 C 12.75 11.914062 12.027344 12.75 10.863281 12.75 Z M 27 27 L 23.25 27 L 23.25 20.175781 C 23.25 18.527344 22.332031 17.402344 20.855469 17.402344 C 19.730469 17.402344 19.121094 18.160156 18.824219 18.894531 C 18.71875 19.15625 18.75 19.882812 18.75 20.25 L 18.75 27 L 15 27 L 15 14.25 L 18.75 14.25 L 18.75 16.210938 C 19.289062 15.375 20.136719 14.25 22.304688 14.25 C 24.988281 14.25 27 15.9375 27 19.707031 Z M 27 27 "/>
</g>
</svg>
