<?xml version="1.0" encoding="UTF-8"?>
<svg xmlns="http://www.w3.org/2000/svg" xmlns:xlink="http://www.w3.org/1999/xlink" width="36pt" height="36pt" viewBox="0 0 36 36" version="1.1">
<defs>
<linearGradient id="linear0" gradientUnits="userSpaceOnUse" x1="0.081" y1="2.176" x2="50.487" y2="52.582001" gradientTransform="matrix(0.75,0,0,0.75,0,0)">
<stop offset="0" style="stop-color:rgb(14.901961%,14.901961%,14.901961%);stop-opacity:0;"/>
<stop offset="1" style="stop-color:rgb(14.901961%,14.901961%,14.901961%);stop-opacity:0.8;"/>
</linearGradient>
<linearGradient id="linear1" gradientUnits="userSpaceOnUse" x1="17.190001" y1="-4.022" x2="36.290001" y2="15.078" gradientTransform="matrix(0.75,0,0,0.75,0,0)">
<stop offset="0" style="stop-color:rgb(14.901961%,14.901961%,14.901961%);stop-opacity:0;"/>
<stop offset="1" style="stop-color:rgb(14.901961%,14.901961%,14.901961%);stop-opacity:0.8;"/>
</linearGradient>
</defs>
<g id="surface4498">
<path style=" stroke:none;fill-rule:nonzero;fill:url(#linear0);" d="M 32.179688 24.960938 C 31.402344 26.679688 31.03125 27.445312 30.035156 28.964844 C 28.644531 31.082031 26.679688 33.726562 24.25 33.746094 C 22.089844 33.761719 21.535156 32.335938 18.601562 32.359375 C 15.667969 32.375 15.058594 33.773438 12.894531 33.75 C 10.464844 33.726562 8.605469 31.34375 7.214844 29.230469 C 3.320312 23.296875 2.90625 16.34375 5.316406 12.644531 C 7.019531 10.019531 9.714844 8.480469 12.242188 8.480469 C 14.820312 8.480469 16.4375 9.894531 18.570312 9.894531 C 20.636719 9.894531 21.894531 8.476562 24.875 8.476562 C 27.128906 8.476562 29.515625 9.703125 31.21875 11.824219 C 25.644531 14.875 26.550781 22.832031 32.179688 24.960938 Z M 32.179688 24.960938 "/>
<path style=" stroke:none;fill-rule:nonzero;fill:url(#linear1);" d="M 22.351562 6.09375 C 23.421875 4.71875 24.234375 2.78125 23.9375 0.804688 C 22.191406 0.921875 20.148438 2.039062 18.957031 3.484375 C 17.875 4.800781 16.976562 6.753906 17.328125 8.644531 C 19.234375 8.707031 21.207031 7.570312 22.351562 6.09375 Z M 22.351562 6.09375 "/>
</g>
</svg>
